<svg width="140" height="85" viewBox="0 0 140 85" fill="none" xmlns="http://www.w3.org/2000/svg">
<g clip-path="url(#clip0_3740_116)">
<mask id="mask0_3740_116" style="mask-type:luminance" maskUnits="userSpaceOnUse" x="0" y="0" width="140" height="85">
<path d="M140 0H0V85H140V0Z" fill="white"/>
</mask>
<g mask="url(#mask0_3740_116)">
<path d="M148.217 153.521H-7.59952C-15.2893 153.513 -21.5211 148.048 -21.5295 141.304V-56.8781C-21.5211 -63.6216 -15.2893 -69.087 -7.59952 -69.0945H148.217C155.907 -69.087 162.138 -63.6216 162.147 -56.8781V141.304C162.138 148.048 155.907 153.513 148.217 153.521Z" fill="#E6E6E6"/>
<path d="M148.491 145.726H-7.8741C-10.2447 145.723 -12.1654 144.039 -12.1682 141.96V-57.5337C-12.1654 -59.6128 -10.2447 -61.2973 -7.8741 -61.2998H148.491C150.862 -61.2973 152.782 -59.6128 152.785 -57.5337V141.96C152.783 144.039 150.861 145.723 148.491 145.726Z" fill="white"/>
<path d="M133.334 70.0637H7.28341C7.06552 70.0637 6.88867 69.9092 6.88867 69.7181V16.7308C6.88867 16.5397 7.06552 16.3853 7.28341 16.3853C7.5013 16.3853 7.67745 16.5397 7.67745 16.7308V69.3719H133.334C133.552 69.3725 133.728 69.5283 133.728 69.7194C133.726 69.9092 133.551 70.0631 133.334 70.0637Z" fill="#3F3D56"/>
<path d="M34.2145 66.2577H22.7499C22.1033 66.2571 21.5798 65.798 21.5791 65.2309V51.3703C21.5798 50.8032 22.1033 50.3441 22.7499 50.3435H34.2145C34.8611 50.3441 35.3846 50.8032 35.386 51.3703V65.2309C35.3846 65.798 34.8611 66.2571 34.2145 66.2577Z" fill="#EF303D"/>
<path d="M55.122 66.2578H43.6574C43.0108 66.2572 42.4873 65.7981 42.4866 65.231V38.2234C42.4873 37.6563 43.0108 37.1972 43.6574 37.1965H55.122C55.7686 37.1972 56.2928 37.6563 56.2935 38.2234V65.231C56.2928 65.7981 55.7686 66.2572 55.122 66.2578Z" fill="#EF303D"/>
<path d="M76.0302 66.2577H64.5649C63.919 66.2571 63.3948 65.798 63.394 65.2309V51.3703C63.3948 50.8032 63.919 50.3441 64.5649 50.3435H76.0302C76.6761 50.3441 77.2003 50.8032 77.201 51.3703V65.2309C77.2003 65.798 76.6761 66.2571 76.0302 66.2577Z" fill="#EF303D"/>
<path d="M96.9376 66.2578H85.473C84.8413 66.2703 84.3171 65.8316 84.3015 65.2776V32.9875C84.3171 32.4334 84.8413 31.9948 85.473 32.0066H96.9376C97.5694 31.9948 98.0929 32.4334 98.1084 32.9875V65.2776C98.0929 65.8316 97.5694 66.2703 96.9376 66.2578Z" fill="#EF303D"/>
<path d="M117.845 66.2578H106.38C105.734 66.2572 105.209 65.798 105.209 65.231V23.6926C105.209 23.1255 105.734 22.6664 106.38 22.6658H117.845C118.491 22.6664 119.015 23.1255 119.016 23.6926V65.231C119.015 65.798 118.491 66.2572 117.845 66.2578Z" fill="#EF303D"/>
<path d="M30.8494 44.1163C30.8494 45.2628 29.7896 46.1923 28.4823 46.1923C27.175 46.1923 26.1152 45.2628 26.1152 44.1163C26.1152 42.9697 27.175 42.0403 28.4823 42.0403C29.7896 42.0403 30.8494 42.9697 30.8494 44.1163Z" fill="#3F3D56"/>
<path d="M51.7566 30.623C51.7566 31.7695 50.6969 32.699 49.3895 32.699C48.0822 32.699 47.0225 31.7695 47.0225 30.623C47.0225 29.477 48.0822 28.5476 49.3895 28.5476C50.6969 28.5476 51.7566 29.477 51.7566 30.623Z" fill="#3F3D56"/>
<path d="M72.6641 44.1163C72.6641 45.2628 71.6044 46.1923 70.297 46.1923C68.9904 46.1923 67.9307 45.2628 67.9307 44.1163C67.9307 42.9697 68.9904 42.0403 70.297 42.0403C71.6044 42.0403 72.6641 42.9697 72.6641 44.1163Z" fill="#3F3D56"/>
<path d="M93.5718 24.0495C93.5718 25.1961 92.5121 26.1255 91.2054 26.1255C89.8981 26.1255 88.8384 25.1961 88.8384 24.0495C88.8384 22.9035 89.8981 21.9741 91.2054 21.9741C92.5121 21.9741 93.5718 22.9035 93.5718 24.0495Z" fill="#3F3D56"/>
<path d="M114.48 16.4385C114.48 17.5851 113.42 18.5139 112.113 18.5139C110.805 18.5139 109.746 17.5851 109.746 16.4385C109.746 15.292 110.805 14.3625 112.113 14.3625C113.42 14.3625 114.48 15.292 114.48 16.4385Z" fill="#3F3D56"/>
<path d="M70.3472 44.5808L49.3895 30.8139L28.7184 44.3928L28.2451 43.8394L49.3895 29.949L70.2475 43.6508L90.9738 23.7583L91.058 23.7285L111.965 16.3403L112.26 16.9825L91.4357 24.3409L70.3472 44.5808Z" fill="#3F3D56"/>
</g>
</g>
<defs>
<clipPath id="clip0_3740_116">
<rect width="140" height="85" fill="white"/>
</clipPath>
</defs>
</svg>
