<svg width="107" height="88" viewBox="0 0 107 88" fill="none" xmlns="http://www.w3.org/2000/svg">
<g clip-path="url(#clip0_3598_1013)">
<path d="M67.928 19.7909H39.0962C38.4392 19.7916 37.8093 20.0118 37.3447 20.4032C36.8801 20.7946 36.6187 21.3254 36.6179 21.8789V75.8685L36.2875 75.9534L29.2146 77.7784C28.8794 77.8645 28.5173 77.835 28.2079 77.6964C27.8985 77.5579 27.6669 77.3215 27.5641 77.0392L6.52545 19.138C6.42306 18.8556 6.45796 18.5505 6.62247 18.2897C6.78697 18.029 7.06763 17.8339 7.40275 17.7474L18.3021 14.9355L49.8997 6.78663L60.799 3.97474C60.9648 3.93173 61.1391 3.9167 61.3119 3.93051C61.4847 3.94432 61.6525 3.9867 61.8058 4.05523C61.9591 4.12376 62.0949 4.21708 62.2054 4.32987C62.3158 4.44265 62.3988 4.57268 62.4495 4.71251L67.8273 19.5125L67.928 19.7909Z" fill="#F2F2F2"/>
<path d="M74.2195 19.5124L67.738 1.67498C67.6302 1.37778 67.4539 1.10139 67.2192 0.861608C66.9846 0.621828 66.6961 0.423359 66.3704 0.277539C66.0447 0.131718 65.688 0.0414046 65.3208 0.0117617C64.9537 -0.0178813 64.5832 0.0137275 64.2305 0.104778L48.9067 4.05673L17.3108 12.207L1.98698 16.1604C1.27512 16.3445 0.679064 16.7592 0.329655 17.3132C-0.0197542 17.8673 -0.0939736 18.5155 0.123291 19.1156L22.2755 80.0765C22.452 80.5609 22.8081 80.9849 23.2916 81.2863C23.7751 81.5877 24.3605 81.7506 24.962 81.7511C25.2403 81.7512 25.5171 81.716 25.783 81.6467L36.2875 78.9378L36.6179 78.8515V78.5605L36.2875 78.6454L25.6856 81.3808C25.0572 81.5422 24.3786 81.487 23.7984 81.2273C23.2183 80.9677 22.7841 80.5247 22.5911 79.9957L0.440574 19.0335C0.344929 18.7714 0.311594 18.4959 0.342477 18.2229C0.37336 17.9499 0.467852 17.6847 0.620548 17.4425C0.773244 17.2004 0.981145 16.9859 1.23234 16.8115C1.48353 16.6371 1.77309 16.5062 2.08443 16.4262L17.4082 12.4729L49.0042 4.324L64.328 0.370657C64.5642 0.309937 64.8097 0.278977 65.0566 0.278783C65.5864 0.279786 66.102 0.423715 66.5278 0.689489C66.9535 0.955263 67.2671 1.32892 67.4225 1.75572L73.8742 19.5124L73.9766 19.7908H74.3203L74.2195 19.5124Z" fill="#3F3D56"/>
<path d="M20.2688 17.7928C19.9504 17.7926 19.6404 17.7065 19.3843 17.547C19.1283 17.3875 18.9396 17.163 18.8461 16.9066L16.718 11.0501C16.6608 10.8928 16.641 10.7275 16.6596 10.5637C16.6782 10.4 16.735 10.2409 16.8266 10.0956C16.9182 9.95028 17.0429 9.82161 17.1935 9.71692C17.3442 9.61223 17.5178 9.53356 17.7045 9.48542L46.7725 1.98746C47.1496 1.89051 47.5569 1.92358 47.9051 2.0794C48.2533 2.23522 48.5139 2.50107 48.6297 2.8186L50.7577 8.67515C50.8727 8.99286 50.8334 9.33604 50.6485 9.62938C50.4636 9.92272 50.1481 10.1423 49.7713 10.2399L20.7032 17.7378C20.5624 17.7742 20.416 17.7928 20.2688 17.7928Z" fill="#EF303D"/>
<path d="M31.4164 6.25779C33.2413 6.25779 34.7207 5.01133 34.7207 3.47374C34.7207 1.93616 33.2413 0.689697 31.4164 0.689697C29.5915 0.689697 28.1121 1.93616 28.1121 3.47374C28.1121 5.01133 29.5915 6.25779 31.4164 6.25779Z" fill="#EF303D"/>
<path d="M31.4164 5.23658C32.572 5.23658 33.5088 4.44728 33.5088 3.47364C33.5088 2.49999 32.572 1.71069 31.4164 1.71069C30.2608 1.71069 29.324 2.49999 29.324 3.47364C29.324 4.44728 30.2608 5.23658 31.4164 5.23658Z" fill="white"/>
<path d="M99.5653 81.04H43.7222C43.3499 81.0396 42.9929 80.9148 42.7297 80.693C42.4664 80.4712 42.3183 80.1704 42.3179 79.8568V23.4798C42.3183 23.1661 42.4664 22.8654 42.7297 22.6436C42.9929 22.4218 43.3499 22.297 43.7222 22.2966H99.5653C99.9376 22.297 100.295 22.4218 100.558 22.6436C100.821 22.8654 100.969 23.1662 100.97 23.4798V79.8568C100.969 80.1704 100.821 80.4712 100.558 80.693C100.295 80.9148 99.9376 81.0396 99.5653 81.04Z" fill="#E6E6E6"/>
<path d="M73.874 19.5125H39.096C38.3514 19.5133 37.6377 19.7629 37.1112 20.2065C36.5847 20.6501 36.2884 21.2515 36.2874 21.8789V78.6455L36.6178 78.5606V21.8789C36.6186 21.3253 36.8799 20.7946 37.3445 20.4032C37.8091 20.0117 38.439 19.7915 39.096 19.7909H73.9765L73.874 19.5125ZM104.191 19.5125H39.096C38.3514 19.5133 37.6377 19.7629 37.1112 20.2065C36.5847 20.6501 36.2884 21.2515 36.2874 21.8789V85.6335C36.2884 86.2608 36.5847 86.8622 37.1112 87.3058C37.6377 87.7495 38.3514 87.999 39.096 87.9999H104.191C104.936 87.999 105.65 87.7495 106.176 87.3058C106.703 86.8622 106.999 86.2608 107 85.6335V21.8789C106.999 21.2515 106.703 20.6501 106.176 20.2065C105.65 19.7629 104.936 19.5133 104.191 19.5125ZM106.669 85.6335C106.669 86.1871 106.407 86.7178 105.943 87.1092C105.478 87.5007 104.848 87.7209 104.191 87.7215H39.096C38.439 87.7209 37.8091 87.5007 37.3445 87.1092C36.8799 86.7178 36.6186 86.1871 36.6178 85.6335V21.8789C36.6186 21.3253 36.8799 20.7946 37.3445 20.4032C37.8091 20.0117 38.439 19.7915 39.096 19.7909H104.191C104.848 19.7915 105.478 20.0117 105.943 20.4032C106.407 20.7946 106.669 21.3253 106.669 21.8789V85.6335Z" fill="#3F3D56"/>
<path d="M86.8438 25.6374H56.444C56.0498 25.637 55.6718 25.5049 55.393 25.27C55.1143 25.0351 54.9575 24.7167 54.957 24.3846V18.2597C54.9575 17.9275 55.1143 17.6091 55.393 17.3742C55.6718 17.1393 56.0498 17.0072 56.444 17.0068H86.8438C87.238 17.0072 87.6159 17.1393 87.8947 17.3742C88.1735 17.6091 88.3303 17.9275 88.3307 18.2597V24.3846C88.3303 24.7167 88.1735 25.0351 87.8947 25.27C87.6159 25.5049 87.238 25.637 86.8438 25.6374Z" fill="#EF303D"/>
<path d="M71.6437 17.4245C73.4686 17.4245 74.948 16.1781 74.948 14.6405C74.948 13.1029 73.4686 11.8564 71.6437 11.8564C69.8188 11.8564 68.3394 13.1029 68.3394 14.6405C68.3394 16.1781 69.8188 17.4245 71.6437 17.4245Z" fill="#EF303D"/>
<path d="M71.6437 16.3361C72.7553 16.3361 73.6564 15.5769 73.6564 14.6403C73.6564 13.7038 72.7553 12.9446 71.6437 12.9446C70.5322 12.9446 69.6311 13.7038 69.6311 14.6403C69.6311 15.5769 70.5322 16.3361 71.6437 16.3361Z" fill="white"/>
</g>
<defs>
<clipPath id="clip0_3598_1013">
<rect width="107" height="88" fill="white"/>
</clipPath>
</defs>
</svg>
