<svg width="166" height="64" viewBox="0 0 166 64" fill="none" xmlns="http://www.w3.org/2000/svg">
<g clip-path="url(#clip0_3740_60)">
<mask id="mask0_3740_60" style="mask-type:luminance" maskUnits="userSpaceOnUse" x="0" y="0" width="166" height="64">
<path d="M166 0H0V64H166V0Z" fill="white"/>
</mask>
<g mask="url(#mask0_3740_60)">
<path d="M158.273 23.0087H7.72615C3.46095 23.0036 0.00444957 19.4743 -0.000244141 15.1189V7.9464C0.00444957 3.59102 3.46095 0.0617155 7.72615 0.0566406H158.273C162.538 0.0617155 165.994 3.59102 165.999 7.9464V15.1189C165.994 19.4743 162.538 23.0036 158.273 23.0087ZM7.72615 0.534808C3.71938 0.539601 0.472444 3.85491 0.468026 7.9464V15.1189C0.472444 19.2104 3.71938 22.5257 7.72615 22.5305H158.273C162.279 22.5257 165.526 19.2101 165.531 15.1189V7.9464C165.526 3.85519 162.279 0.539601 158.273 0.534808H7.72615Z" fill="#3F3D56"/>
<path d="M119.173 6.98999C121.63 6.98999 123.622 9.02375 123.622 11.5326C123.622 14.0413 121.63 16.0751 119.173 16.0751H19.1987C16.7419 16.0751 14.7502 14.0413 14.7502 11.5326C14.7502 9.02375 16.7419 6.98999 19.1987 6.98999H119.173Z" fill="#E6E6E6"/>
<path d="M132.284 46.8313C134.741 46.8313 136.733 48.8649 136.733 51.3739C136.733 53.8826 134.741 55.9165 132.284 55.9165H32.3101C29.8534 55.9165 27.8616 53.8826 27.8616 51.3739C27.8616 48.8649 29.8534 46.8313 32.3101 46.8313H132.284Z" fill="#EF303D"/>
<path d="M151.365 16.4402C151.143 16.7638 150.706 16.8425 150.389 16.6161L146.566 13.8999C146.249 13.6732 146.172 13.2272 146.394 12.9035C146.616 12.5798 147.053 12.5012 147.37 12.7279L151.192 15.4438C151.509 15.6705 151.586 16.1165 151.365 16.4402Z" fill="#EF303D"/>
<path d="M147.025 13.3543C145.449 15.6521 142.348 16.2106 140.098 14.6019C137.847 12.9928 137.3 9.82582 138.876 7.52802C140.452 5.22994 143.553 4.67171 145.803 6.28045C148.051 7.89116 148.597 11.0556 147.025 13.3543ZM139.895 8.25627C138.713 9.97948 139.123 12.3548 140.811 13.5615C142.498 14.7682 144.824 14.3495 146.006 12.626C147.188 10.9025 146.778 8.52721 145.09 7.3208C143.402 6.11636 141.077 6.53503 139.895 8.25627Z" fill="#EF303D"/>
<path d="M153.942 60.2501H12.0576C11.9281 60.2501 11.8235 60.1433 11.8235 60.0111C11.8235 59.8791 11.9281 59.772 12.0576 59.772H153.942C154.071 59.772 154.176 59.8791 154.176 60.0111C154.176 60.1433 154.071 60.2501 153.942 60.2501Z" fill="#3F3D56"/>
</g>
</g>
<defs>
<clipPath id="clip0_3740_60">
<rect width="166" height="64" fill="white"/>
</clipPath>
</defs>
</svg>
