<svg width="28" height="28" viewBox="0 0 28 28" fill="none" xmlns="http://www.w3.org/2000/svg">
<path d="M26.47 24.2648L20.1369 17.7188C21.577 15.5088 22.2876 12.7476 21.9072 9.80545C21.2585 4.801 17.2904 0.728419 12.4439 0.0942076C5.2384 -0.848222 -0.82067 5.41459 0.0911529 12.8625C0.70489 17.874 4.64551 21.9788 9.48769 22.646C12.3341 23.0392 15.006 22.305 17.1436 20.8162L23.4767 27.3623C24.3031 28.2165 25.6432 28.2165 26.4697 27.3623C27.2954 26.507 27.2954 25.118 26.47 24.2648ZM4.185 11.375C4.185 7.51514 7.22299 4.37498 10.9573 4.37498C14.6916 4.37498 17.7296 7.51514 17.7296 11.375C17.7296 15.2348 14.6916 18.375 10.9573 18.375C7.22299 18.375 4.185 15.236 4.185 11.375Z" fill="#E62D2C"/>
</svg>
