<svg width="24" height="23" viewBox="0 0 24 23" fill="none" xmlns="http://www.w3.org/2000/svg">
<path fill-rule="evenodd" clip-rule="evenodd" d="M4.65686 12.2889L0.292893 16.6529C-0.097631 17.0434 -0.097631 17.6766 0.292893 18.0671L4.65686 22.4311C5.04738 22.8216 5.68054 22.8216 6.07107 22.4311C6.46159 22.0405 6.46159 21.4074 6.07107 21.0168L3.41421 18.36H23C23.5523 18.36 24 17.9123 24 17.36C24 16.8077 23.5523 16.36 23 16.36H3.41421L6.07107 13.7031C6.46159 13.3126 6.46159 12.6794 6.07107 12.2889C5.68054 11.8984 5.04738 11.8984 4.65686 12.2889Z" fill="#E62D2C"/>
<path fill-rule="evenodd" clip-rule="evenodd" d="M19.3431 0.292893L23.7071 4.65685C24.0976 5.04738 24.0976 5.68054 23.7071 6.07107L19.3431 10.435C18.9526 10.8256 18.3195 10.8256 17.9289 10.435C17.5384 10.0445 17.5384 9.41134 17.9289 9.02081L20.5858 6.36396H1C0.447716 6.36396 4.76837e-07 5.91625 4.76837e-07 5.36396C4.76837e-07 4.81168 0.447716 4.36396 1 4.36396H20.5858L17.9289 1.70711C17.5384 1.31658 17.5384 0.683418 17.9289 0.292893C18.3195 -0.0976311 18.9526 -0.0976311 19.3431 0.292893Z" fill="#E62D2C"/>
</svg>
