<svg width="224" height="230" viewBox="0 0 224 230" fill="none" xmlns="http://www.w3.org/2000/svg">
<g clip-path="url(#clip0_3640_625)">
<mask id="mask0_3640_625" style="mask-type:luminance" maskUnits="userSpaceOnUse" x="0" y="0" width="224" height="230">
<path d="M224 0H0V230H224V0Z" fill="white"/>
</mask>
<g mask="url(#mask0_3640_625)">
<path d="M224.412 238.043H-7.88372C-10.378 238.04 -12.3985 236.023 -12.4015 233.534V-6.64603C-12.3985 -9.13503 -10.378 -11.152 -7.88372 -11.155H224.412C226.905 -11.152 228.927 -9.13503 228.929 -6.64603L228.93 233.534C228.927 236.023 226.905 238.04 224.412 238.043ZM-7.88372 -9.58302C-9.50851 -9.58102 -10.8248 -8.26703 -10.8268 -6.64603V233.534C-10.8248 235.155 -9.50851 236.469 -7.88372 236.471H224.412C226.036 236.469 227.352 235.155 227.354 233.534V-6.64603C227.352 -8.26703 226.037 -9.58102 224.412 -9.58302H-7.88372Z" fill="#3F3D56"/>
<path d="M152.05 89.7869C165.141 113.924 156.153 144.085 131.974 157.154C107.797 170.223 77.583 161.251 64.4915 137.114C51.4 112.977 60.3884 82.8159 84.566 69.7469C91.8435 65.8129 99.9885 63.7529 108.264 63.7519C108.659 63.7519 109.052 63.7579 109.446 63.7669L108.919 42.5369C108.7 42.5349 108.483 42.5289 108.264 42.5289C69.0423 42.5399 37.2567 74.2899 37.2678 113.444C37.2788 152.598 69.0834 184.33 108.305 184.318C147.526 184.307 179.313 152.557 179.301 113.403C179.298 100.557 175.798 87.9529 169.175 76.9389L152.05 89.7869Z" fill="#E62D2C"/>
<path d="M152.05 89.787L169.175 76.939C156.457 55.783 133.633 42.752 108.919 42.537L109.445 63.767C127.293 64.184 143.551 74.113 152.05 89.787Z" fill="#E6E6E6"/>
<path d="M143.545 175.185L144.424 174.316L169.369 199.454L168.49 200.323L143.545 175.185Z" fill="#3F3D56"/>
<path d="M143.1 51.3003L160.439 20.4386L161.517 21.0425L144.178 51.9042L143.1 51.3003Z" fill="#3F3D56"/>
<path d="M187.597 209.598H150.783C149.42 209.597 148.316 208.495 148.314 207.134V201.959C148.316 200.599 149.42 199.497 150.783 199.495H187.597C188.959 199.497 190.064 200.599 190.065 201.959V207.134C190.064 208.495 188.959 209.597 187.597 209.598Z" fill="#E62D2C"/>
<path d="M178.264 21.181H141.45C140.087 21.18 138.983 20.078 138.981 18.718V13.542C138.983 12.182 140.087 11.08 141.45 11.078H178.264C179.626 11.08 180.73 12.182 180.732 13.542V18.718C180.73 20.078 179.626 21.179 178.264 21.181Z" fill="#E6E6E6"/>
</g>
</g>
<defs>
<clipPath id="clip0_3640_625">
<rect width="224" height="230" fill="white"/>
</clipPath>
</defs>
</svg>
