<svg width="219" height="185" viewBox="0 0 219 185" fill="none" xmlns="http://www.w3.org/2000/svg">
<g clip-path="url(#clip0_3640_596)">
<mask id="mask0_3640_596" style="mask-type:luminance" maskUnits="userSpaceOnUse" x="0" y="0" width="219" height="185">
<path d="M219 0H0V185H219V0Z" fill="white"/>
</mask>
<g mask="url(#mask0_3640_596)">
<path d="M118.432 87.7005C118.432 94.3923 113.02 99.817 106.343 99.817C99.6673 99.817 94.2553 94.3923 94.2553 87.7005C94.2553 81.0085 99.6673 75.5836 106.343 75.5836C113.02 75.5836 118.432 81.0085 118.432 87.7005Z" fill="#E62D2C"/>
<path d="M106.386 166.18H106.343C99.2703 165.9 92.4893 164.935 86.1513 163.313L86.6553 161.335C92.8553 162.922 99.4933 163.865 106.384 164.139L106.386 166.18ZM126.647 163.515L126.119 161.543C132.545 159.818 138.73 157.245 144.501 153.897L145.521 155.664C139.596 159.103 133.245 161.745 126.647 163.515ZM67.1423 155.828C61.1103 152.488 55.6103 148.351 50.7953 143.531L52.2353 142.086C56.9153 146.77 62.2623 150.793 68.1273 154.041L67.1423 155.828ZM161.72 143.182L160.28 141.738C164.995 137.01 169.074 131.686 172.405 125.913L174.169 126.935C170.749 132.862 166.56 138.328 161.72 143.182ZM38.4883 127.167C35.1993 121.247 32.6713 114.838 30.9743 108.115L32.9493 107.615C34.6033 114.164 37.0653 120.409 40.2683 126.172L38.4883 127.167ZM181.995 108.008L180.026 107.48C181.736 101.063 182.604 94.4084 182.604 87.7002L182.603 87.5188H184.641V87.6918C184.641 94.5858 183.751 101.418 181.995 108.008ZM29.0453 87.7716L28.4543 87.7436C28.4543 80.865 29.2893 74.0498 30.9363 67.4652L32.9123 67.9618C31.3063 74.3842 30.4913 81.0325 30.4913 87.7216L29.0453 87.7716ZM179.979 67.7454C178.248 61.3085 175.67 55.1149 172.318 49.3355L174.078 48.3096C177.521 54.2435 180.168 60.6036 181.946 67.214L179.979 67.7454ZM40.1883 49.3879L38.4053 48.3988C41.7503 42.3448 45.8753 36.8291 50.6673 32.0049L52.1113 33.4457C47.4523 38.1358 43.4403 43.4993 40.1883 49.3879ZM160.159 33.5419C155.432 28.8239 150.113 24.7439 144.349 21.4164L145.365 19.6466C151.283 23.0634 156.744 27.2516 161.596 32.0952L160.159 33.5419ZM67.9713 21.4473L66.9813 19.6625C72.8073 16.4162 79.1973 13.8832 85.9723 12.1334L86.4813 14.1105C79.8733 15.817 73.6453 18.2851 67.9713 21.4473ZM125.945 13.8109C119.584 12.1199 112.989 11.2625 106.344 11.2625L106.248 11.2675L106.161 9.22747L106.3 9.22156H106.311C113.173 9.22156 119.939 10.1019 126.467 11.8367L125.945 13.8109Z" fill="#3F3D56"/>
</g>
</g>
<defs>
<clipPath id="clip0_3640_596">
<rect width="219" height="185" fill="white"/>
</clipPath>
</defs>
</svg>
