<svg width="28" height="28" viewBox="0 0 28 28" fill="none" xmlns="http://www.w3.org/2000/svg">
<path d="M3 19C3 18.4477 3.44772 18 4 18C4.55228 18 5 18.4477 5 19V25C5 25.5523 4.55228 26 4 26C3.44772 26 3 25.5523 3 25V19Z" fill="#CCD2E3"/>
<path d="M8 15C8 14.4477 8.44772 14 9 14C9.55228 14 10 14.4477 10 15V25C10 25.5523 9.55228 26 9 26C8.44772 26 8 25.5523 8 25V15Z" fill="#CCD2E3"/>
<path d="M13 9C13 8.44772 13.4477 8 14 8C14.5523 8 15 8.44772 15 9V25C15 25.5523 14.5523 26 14 26C13.4477 26 13 25.5523 13 25V9Z" fill="#CCD2E3"/>
<path d="M18 11C18 10.4477 18.4477 10 19 10C19.5523 10 20 10.4477 20 11V25C20 25.5523 19.5523 26 19 26C18.4477 26 18 25.5523 18 25V11Z" fill="#CCD2E3"/>
<path d="M23 3C23 2.44772 23.4477 2 24 2C24.5523 2 25 2.44772 25 3V25C25 25.5523 24.5523 26 24 26C23.4477 26 23 25.5523 23 25V3Z" fill="#CCD2E3"/>
</svg>
