<svg width="26" height="29" viewBox="0 0 26 29" fill="none" xmlns="http://www.w3.org/2000/svg">
<path fill-rule="evenodd" clip-rule="evenodd" d="M0.503179 9.05625C0 10.1005 0 11.2886 0 13.6647V21.0853C0 24.3852 0 26.0351 1.07394 27.0602C2.13922 28.0771 3.84852 28.0853 7.25 28.0853V19.3354C7.25 17.7733 8.56288 16.5854 10.0833 16.5854H15.5833C17.1038 16.5854 18.4167 17.7733 18.4167 19.3354V28.0853C21.8181 28.0853 23.5274 28.0771 24.5927 27.0602C25.6667 26.0351 25.6667 24.3852 25.6667 21.0853V13.6647C25.6667 11.2886 25.6667 10.1005 25.1635 9.05625C24.6603 8.01196 23.7153 7.23879 21.8254 5.69246L19.992 4.19246C16.576 1.39749 14.8679 0 12.8333 0C10.7988 0 9.09071 1.39749 5.67463 4.19246L3.84129 5.69246C1.95134 7.23879 1.00636 8.01196 0.503179 9.05625ZM16.4167 28.0853V19.3354C16.4167 18.9646 16.0879 18.5854 15.5833 18.5854H10.0833C9.57875 18.5854 9.25 18.9646 9.25 19.3354V28.0853H16.4167Z" fill="#CCD2E3"/>
</svg>
