<svg width="167" height="37" viewBox="0 0 167 37" fill="none" xmlns="http://www.w3.org/2000/svg">
<path d="M22.0076 0.0171814C29.3271 0.0171814 34.8238 1.48649 38.502 4.4203C42.1761 7.35411 44.0151 11.9885 44.0151 18.3186C44.0151 24.6486 42.1842 29.336 38.5265 32.2698C34.8647 35.2036 29.3598 36.6729 22.0116 36.6729C14.6635 36.6729 9.11771 35.2036 5.47226 32.2698C1.82272 29.336 0 24.6824 0 18.3186C0 11.9547 1.8309 7.35411 5.48861 4.4203C9.1504 1.48649 14.6554 0.0171814 22.0076 0.0171814ZM22.0076 27.4427C24.3493 27.4427 26.3273 27.3271 27.9498 27.0959C29.5682 26.8647 30.8801 26.4166 31.8854 25.7422C32.8908 25.0726 33.6182 24.1428 34.0678 22.9577C34.5173 21.7726 34.7421 20.2263 34.7421 18.3137C34.7421 16.4012 34.5173 14.8596 34.0678 13.6746C33.6182 12.4895 32.8908 11.5694 31.8854 10.9142C30.8801 10.259 29.5682 9.82063 27.9498 9.58939C26.3314 9.35816 24.3493 9.24254 22.0076 9.24254C19.6658 9.24254 17.6878 9.35816 16.0653 9.58939C14.4469 9.82063 13.131 10.2638 12.1297 10.9142C11.1243 11.5694 10.3969 12.4895 9.94734 13.6746C9.49779 14.8596 9.27301 16.406 9.27301 18.3137C9.27301 20.2214 9.49779 21.7726 9.94734 22.9577C10.3969 24.1428 11.1243 25.0726 12.1297 25.7422C13.1351 26.4166 14.4469 26.8647 16.0653 27.0959C17.6837 27.3271 19.6658 27.4427 22.0076 27.4427Z" fill="#E62D2C"/>
<path d="M88.4716 13.9154C88.4716 15.8954 88.1406 17.6923 87.4826 19.3013C86.8206 20.9103 85.8561 22.2833 84.581 23.4106C83.3059 24.5427 81.7529 25.4243 79.922 26.065C78.0911 26.7009 76.0068 27.0188 73.6651 27.0188H57.9144V36.09H48.6455V17.9476H74.5683C76.0068 17.9476 77.1266 17.5767 77.9194 16.8348C78.7123 16.0929 79.1128 15.1005 79.1128 13.8624C79.1128 12.6244 78.7164 11.6416 77.9194 10.919C77.1225 10.1964 76.0068 9.83027 74.5683 9.83027H48.6455L54.8125 0.600098H73.7141C76.0559 0.600098 78.1401 0.927682 79.971 1.58285C81.8019 2.23802 83.3468 3.14851 84.6055 4.31433C85.8642 5.48014 86.8246 6.87719 87.4867 8.50548C88.1447 10.1338 88.4757 11.9355 88.4757 13.9154H88.4716Z" fill="#E62D2C"/>
<path d="M128.163 26.9658L122.176 36.09H93.196V0.600098H128.073L122.045 9.83027H102.559V14.0744H126.41L121.056 22.1388H102.559V26.9658H128.163Z" fill="#E62D2C"/>
<path d="M161.871 36.6729C161.27 36.6729 160.678 36.5573 160.093 36.3261C159.509 36.0948 158.855 35.5746 158.136 34.7604L139.684 15.2402V36.0852H131.224V6.64595C131.224 5.48013 131.367 4.47329 131.653 3.62061C131.939 2.77275 132.311 2.08385 132.777 1.55394C133.243 1.02402 133.782 0.633811 134.395 0.388123C135.008 0.142434 135.646 0.0171814 136.308 0.0171814C136.876 0.0171814 137.456 0.132799 138.041 0.364036C138.625 0.595272 139.291 1.11555 140.043 1.9297L158.495 21.4499V0.600089H167V29.9863C167 31.1522 166.857 32.159 166.571 33.0117C166.285 33.8596 165.909 34.5581 165.447 35.1073C164.981 35.6564 164.433 36.0515 163.804 36.302C163.175 36.5525 162.529 36.6729 161.871 36.6729Z" fill="#E62D2C"/>
</svg>
