<svg width="159" height="16" viewBox="0 0 159 16" fill="none" xmlns="http://www.w3.org/2000/svg">
<path d="M4.18303 9.06238H1.70233V15.4117H0.0185547V0.198334H4.18303C7.21954 0.198334 8.64585 2.16384 8.64585 4.64963C8.64585 6.96199 7.3871 9.05757 4.18303 9.05757V9.06238ZM4.18303 7.42446C6.10793 7.42446 6.92529 6.35499 6.92529 4.65445C6.92529 2.9539 6.11201 1.84107 4.18303 1.84107H1.70233V7.42928H4.18303V7.42446Z" fill="#191919"/>
<path d="M19.5536 15.5657C15.9245 15.5657 13.0719 12.3573 13.0719 7.79521C13.0719 3.23312 15.9245 0.0247192 19.5536 0.0247192C23.1827 0.0247192 26.0353 3.23312 26.0353 7.79521C26.0353 12.3573 23.2031 15.5657 19.5536 15.5657ZM19.5536 13.8411C22.2754 13.8411 24.3107 11.5046 24.3107 7.79521C24.3107 4.0858 22.2754 1.74936 19.5536 1.74936C16.8318 1.74936 14.7965 4.06171 14.7965 7.79521C14.7965 11.5287 16.8318 13.8411 19.5536 13.8411Z" fill="#191919"/>
<path d="M30.2202 0.198334H32.0143L34.8302 13.0946L37.9402 0.198334H39.8283L42.7913 13.0512L45.6235 0.198334H47.438L43.6986 15.4117H41.8105L38.8107 3.16586L35.7006 15.4117L33.8289 15.4358L30.2202 0.203149V0.198334Z" fill="#191919"/>
<path d="M59.1999 1.81697H53.9401V6.90417H58.6441V8.54209H53.9401V13.7786H59.1999V15.4165H52.2563V0.183868H59.1999V1.82179V1.81697Z" fill="#191919"/>
<path d="M68.8816 0.198334C71.9182 0.198334 73.3608 2.18311 73.3608 4.67372C73.3608 6.61514 72.4535 8.46984 70.2875 9.0383L73.5284 15.4117H71.5095L68.4362 9.19245H66.4009V15.4117H64.7172V0.198334H68.8816ZM68.8816 1.83625H66.4009V7.59789H68.8816C70.7902 7.59789 71.6239 6.37426 71.6239 4.67372C71.6239 2.97317 70.8106 1.83625 68.8816 1.83625Z" fill="#191919"/>
<path d="M80.623 0.19833V13.7931H85.139V15.4069H78.9352V0.193512H80.619L80.623 0.19833Z" fill="#191919"/>
<path d="M89.9001 0.198334H91.5839V15.4117H89.9001V0.198334Z" fill="#191919"/>
<path d="M97.4158 0.198334H104.711V1.81217H99.0995V6.94272H103.652V8.55655H99.0995V15.4117H97.4158V0.198334Z" fill="#191919"/>
<path d="M108.916 0.198334H117.654V1.81217H114.135V15.4069H112.451V1.81217H108.916V0.198334Z" fill="#191919"/>
<path d="M122.693 0.198334H124.377V15.4117H122.693V0.198334Z" fill="#191919"/>
<path d="M140.356 0.179047V15.4117H138.672L131.896 3.30073V15.4117H130.213V0.179047H131.896L138.672 12.2708V0.179047H140.356Z" fill="#191919"/>
<path d="M157.983 4.60626H155.964C155.261 2.83827 153.855 1.81216 152.04 1.81216C149.319 1.81216 147.283 4.12452 147.283 7.79058C147.283 11.4566 149.319 13.7497 152.04 13.7497C154.578 13.7497 156.315 11.8276 156.577 8.81669H151.431V7.20285H158.375V8.72997C158.081 12.5068 155.543 15.537 152.044 15.537C148.546 15.537 145.563 12.3527 145.563 7.79058C145.563 3.22848 148.415 0.0200806 152.044 0.0200806C154.766 0.0200806 157.026 1.67727 157.987 4.60145L157.983 4.60626Z" fill="#191919"/>
</svg>
