<svg width="25" height="25" viewBox="0 0 25 25" fill="none" xmlns="http://www.w3.org/2000/svg">
<mask id="mask0_3686_1031" style="mask-type:luminance" maskUnits="userSpaceOnUse" x="0" y="0" width="25" height="25">
<path d="M24.4752 0H0V25H24.4752V0Z" fill="white"/>
</mask>
<g mask="url(#mask0_3686_1031)">
<path d="M23.9159 21.665L18.1939 15.8203C19.495 13.8472 20.137 11.3818 19.7933 8.75486C19.2073 4.2866 15.622 0.650374 11.2432 0.0841139C4.73294 -0.757341 -0.741483 4.83446 0.0823574 11.4844C0.636874 15.959 4.19726 19.624 8.57221 20.2197C11.144 20.5707 13.5581 19.9152 15.4894 18.5859L21.2114 24.4306C21.9581 25.1933 23.1689 25.1933 23.9156 24.4306C24.6617 23.667 24.6617 22.4268 23.9159 21.665ZM3.78118 10.1562C3.78118 6.70995 6.52604 3.90623 9.89999 3.90623C13.2739 3.90623 16.0188 6.70995 16.0188 10.1562C16.0188 13.6025 13.2739 16.4062 9.89999 16.4062C6.52604 16.4062 3.78118 13.6035 3.78118 10.1562Z" fill="#CCD2E3"/>
</g>
</svg>
