<svg width="40" height="40" viewBox="0 0 40 40" fill="none" xmlns="http://www.w3.org/2000/svg">
<path fill-rule="evenodd" clip-rule="evenodd" d="M11.7124 4.80164L24.7352 2.75519C27.9558 2.2491 29.5661 1.99605 30.6164 2.89417C31.6666 3.79229 31.6666 5.42235 31.6666 8.68245V18.9993H20.4139L25.7808 12.2907L24.2191 11.0413L17.5524 19.3746L17.0527 19.9993L17.5524 20.624L24.2191 28.9573L25.7808 27.7079L20.4139 20.9993H31.6666V31.3161C31.6666 34.5763 31.6666 36.2063 30.6164 37.1044C29.5661 38.0025 27.9558 37.7495 24.7352 37.2434L11.7124 35.197C10.0996 34.9435 9.29326 34.8168 8.81329 34.2555C8.33331 33.6942 8.33331 32.878 8.33331 31.2455V8.75315C8.33331 7.12063 8.33331 6.30436 8.81329 5.74307C9.29326 5.18178 10.0996 5.05507 11.7124 4.80164Z" fill="#CCD2E3"/>
</svg>
